@startuml
'https://plantuml.com/class-diagram

abstract class Widget
class MainWindow
class SendDialog
class MsgText

Widget <|-- MainWindow
Widget <|-- SendDialog
Widget <|-- MsgText

class Widget {
    +handle()
}

class MainWindow {
    +handle_close()
    +handle_default()
}

class SendDialog {
    +handle_paint()
}

class MsgText {
    +handle_down()
}

@enduml